<?xml version="1.0" encoding="UTF-8"?>
<svg width="500px" height="500px" viewBox="0 -6 100 155" version="1.1" xmlns="http://www.w3.org/2000/svg" xmlns:xlink="http://www.w3.org/1999/xlink">
    <!-- Generator: Sketch 57.1 (83088) - https://sketch.com -->
    <title>Slice 1</title>
    <desc>Created with Sketch.</desc>
    <g id="Page-1" stroke="none" stroke-width="1" fill="none" fill-rule="evenodd">
        <path d="M102.653819,28.6794227 L93.3275037,133.157809 L51.4053675,144.780002 L9.59866015,133.174178 L0.282222227,28.6794227 L102.653819,28.6794227 Z M93.3131104,37.2234184 L51.4680208,37.2234184 L51.4680208,50.0394119 L19.3319403,50.0394119 L20.4969537,62.8554054 L51.4237119,62.8554054 L51.4680208,62.8554054 L51.4680208,75.9790212 L21.6399537,75.9790212 L22.7885981,88.7947325 L51.4237119,88.7947325 L51.4680208,88.7947325 L51.4672222,109.261423 L51.4237119,109.273906 L51.4232222,109.274423 L51.4118586,109.27814 L37.1387517,105.424113 L36.2263272,95.2028704 L23.361227,95.2028704 L25.1567248,115.325597 L51.4090364,122.613422 L51.4680208,122.597053 L51.4680208,135.896493 L85.3431547,126.504984 L93.3131104,37.2234184 Z" id="Combined-Shape" fill="#F0EFD2" fill-rule="nonzero"></path>
        <path d="M93.3131104,37.2234184 L85.3431547,126.504984 L51.4680208,135.896493 L51.4680208,122.594418 L77.6969079,115.325597 L77.8896657,113.160388 L80.9012591,79.420439 L81.2139613,75.9790212 L83.5276191,50.0394119 L51.4680208,50.0384184 L51.4680208,37.2234184 L93.3131104,37.2234184 Z M51.4680208,88.7944184 L67.2050144,88.7947325 L65.717421,105.415928 L51.4680208,109.261418 L51.4680208,88.7944184 Z M51.4680208,62.8544184 L69.4825478,62.8554054 L68.3164055,75.9790212 L51.4680208,75.9784184 L51.4680208,62.8544184 Z" id="polygon2991-2" fill="#F0EFD2" fill-rule="nonzero" opacity="0.5"></path>
        <polygon id="path2999" fill="#F0EFD2" fill-rule="nonzero" points="24.3746871 0.282222227 39.8969095 0.282222227 39.8969095 6.77333344 30.8657983 6.77333344 30.8657983 13.2644447 39.8969095 13.2644447 39.8969095 19.7555559 24.3746871 19.7555559"></polygon>
        <polygon id="path3001" fill="#F0EFD2" fill-rule="nonzero" points="43.001354 0.282222227 58.5235765 0.282222227 58.5235765 5.92666676 49.4924652 5.92666676 49.4924652 7.05555567 58.5235765 7.05555567 58.5235765 20.0377781 43.001354 20.0377781 43.001354 14.1111113 52.0324653 14.1111113 52.0324653 12.9822224 43.001354 12.9822224"></polygon>
        <polygon id="path3003" fill="#F0EFD2" fill-rule="nonzero" points="61.628021 0.282222227 77.1502434 0.282222227 77.1502434 5.92666676 68.1191322 5.92666676 68.1191322 7.05555567 77.1502434 7.05555567 77.1502434 20.0377781 61.628021 20.0377781 61.628021 14.1111113 70.6591322 14.1111113 70.6591322 12.9822224 61.628021 12.9822224"></polygon>
    </g>
</svg>