<?xml version="1.0" encoding="UTF-8"?>
<svg width="630px" height="630px" viewBox="0 0 630 630" version="1.1" xmlns="http://www.w3.org/2000/svg" xmlns:xlink="http://www.w3.org/1999/xlink">
    <!-- Generator: Sketch 57.1 (83088) - https://sketch.com -->
    <title>Slice 1</title>
    <desc>Created with Sketch.</desc>
    <g id="Page-1" stroke="none" stroke-width="1" fill="none" fill-rule="evenodd">
        <path d="M630,0 L630,630 L0,630 L0,0 L630,0 Z M479.5,285.89 C426.63,285.89 392.8,319.69 392.8,364.09 C392.8,411.808 420.615238,434.63146 462.622716,452.742599 L463.9,453.29 L478.7,459.64 C505.7,471.45 521.8,478.64 521.8,498.94 C521.8,515.88 506.13,528.14 481.6,528.14 C452.692,528.14 436.221469,513.213077 423.581855,492.809943 L423.2,492.19 L375.09,520.14 C392.47,554.48 427.99,580.68 482.97,580.68 C539.2,580.68 581.07,551.48 581.07,498.18 C581.07,449.2344 553.23516,427.192545 503.872423,405.827253 L502.37,405.18 L487.57,398.84 C462.17,387.84 451.17,380.65 451.17,362.89 C451.17,348.52 462.16,337.52 479.5,337.52 C496.33,337.52 507.230395,344.547317 517.295255,362.347305 L517.6,362.89 L563.7,333.29 C544.2,298.99 517.14,285.89 479.5,285.89 Z M343.09,289.27 L283.89,289.27 L283.89,490.57 C283.89,520.16 271.62,527.77 252.17,527.77 C231.83,527.77 223.37,513.82 214.07,497.32 L214.07,497.32 L165.88,526.495 C179.84,556.04 207.29,580.57 254.69,580.57 C307.15,580.57 343.09,552.67 343.09,491.37 L343.09,491.37 L343.09,289.27 Z" id="Shape" fill="#F0EFD2" fill-rule="nonzero"></path>
    </g>
</svg>